<svg width="105" height="14" viewBox="0 0 105 14" fill="none" xmlns="http://www.w3.org/2000/svg">
<path d="M0.984 11.096C0.76 11.096 0.573333 11.0213 0.424 10.872C0.274667 10.7227 0.2 10.536 0.2 10.312V1.144C0.2 0.856 0.226667 0.648 0.28 0.52C0.344 0.391999 0.461333 0.306666 0.632 0.264C0.813333 0.210666 1.096 0.183999 1.48 0.183999H2.136C3.928 0.183999 5.30933 0.482666 6.28 1.08C7.25067 1.67733 7.736 2.51467 7.736 3.592C7.736 4.95733 6.94667 5.992 5.368 6.696C6.49867 7.592 7.384 8.67467 8.024 9.944C8.07733 10.0507 8.104 10.1733 8.104 10.312C8.104 10.5253 8.02933 10.712 7.88 10.872C7.74133 11.0213 7.55467 11.096 7.32 11.096C7.02133 11.096 6.78667 10.9573 6.616 10.68C5.208 8.44 3.94933 7.32 2.84 7.32C2.50933 7.32 2.152 7.352 1.768 7.416V10.312C1.768 10.536 1.688 10.7227 1.528 10.872C1.37867 11.0213 1.19733 11.096 0.984 11.096ZM1.768 5.944C2.92 5.86933 3.93867 5.63467 4.824 5.24C5.70933 4.84533 6.152 4.296 6.152 3.592C6.152 2.984 5.79467 2.52 5.08 2.2C4.376 1.88 3.37867 1.72 2.088 1.72H1.768V5.944ZM10.3121 2.44C10.1095 2.44 9.92813 2.36 9.76813 2.2C9.61879 2.04 9.54946 1.85867 9.56013 1.656L9.57613 1.064C9.58679 0.861333 9.66679 0.685333 9.81613 0.535999C9.96546 0.386666 10.1415 0.311999 10.3441 0.311999C10.5468 0.311999 10.7228 0.391999 10.8721 0.551999C11.0321 0.712 11.1068 0.888 11.0961 1.08L11.0801 1.688C11.0695 1.90133 10.9895 2.08267 10.8401 2.232C10.7015 2.37067 10.5255 2.44 10.3121 2.44ZM10.2321 11.096C10.0188 11.096 9.83213 11.0213 9.67213 10.872C9.52279 10.712 9.44813 10.5253 9.44813 10.312L9.52813 3.944C9.52813 3.73067 9.60279 3.54933 9.75213 3.4C9.91213 3.24 10.0988 3.16 10.3121 3.16C10.5361 3.16 10.7228 3.24 10.8721 3.4C11.0215 3.54933 11.0961 3.73067 11.0961 3.944L11.0161 10.312C11.0161 10.5253 10.9361 10.712 10.7761 10.872C10.6268 11.0213 10.4455 11.096 10.2321 11.096ZM16.3148 11.096C15.6748 11.096 15.0881 10.9413 14.5548 10.632C14.0214 10.3227 13.6001 9.90133 13.2908 9.368C12.9814 8.824 12.8268 8.232 12.8268 7.592C12.8268 6.86667 12.9974 6.15733 13.3388 5.464C13.6801 4.77067 14.1281 4.20533 14.6828 3.768C15.2374 3.33067 15.8241 3.112 16.4427 3.112C17.0081 3.112 17.4614 3.20267 17.8028 3.384C18.1548 3.55467 18.4961 3.832 18.8268 4.216C18.9868 4.38667 19.0668 4.57333 19.0668 4.776C19.0668 4.97867 18.9921 5.15467 18.8428 5.304C18.6934 5.44267 18.5121 5.512 18.2988 5.512C18.1601 5.512 18.0481 5.49067 17.9628 5.448C17.8881 5.40533 17.7974 5.32 17.6908 5.192C17.5094 4.98933 17.3281 4.83467 17.1468 4.728C16.9761 4.62133 16.7468 4.568 16.4588 4.568C16.1281 4.568 15.7921 4.712 15.4508 5C15.1201 5.288 14.8481 5.66667 14.6348 6.136C14.4321 6.59467 14.3307 7.06933 14.3307 7.56C14.3307 7.98667 14.4214 8.36 14.6028 8.68C14.7948 8.98933 15.0401 9.22933 15.3388 9.4C15.6374 9.56 15.9521 9.64 16.2828 9.64C16.7094 9.64 17.0561 9.56 17.3228 9.4C17.6001 9.24 17.8454 9.02133 18.0588 8.744C18.2614 8.47733 18.4908 8.344 18.7468 8.344C18.9494 8.344 19.1254 8.41867 19.2748 8.568C19.4241 8.70667 19.4988 8.86667 19.4988 9.048C19.4988 9.26133 19.4401 9.44267 19.3228 9.592C19.0134 10.008 18.5921 10.3653 18.0588 10.664C17.5254 10.952 16.9441 11.096 16.3148 11.096ZM21.6544 11.096C21.4624 11.096 21.2864 11.0213 21.1264 10.872C20.9664 10.712 20.8864 10.5307 20.8864 10.328L20.8544 1.096C20.8544 0.893333 20.929 0.717333 21.0784 0.568C21.2384 0.418667 21.425 0.344 21.6384 0.344C21.8624 0.344 22.0437 0.424 22.1824 0.584C22.3317 0.733333 22.4064 0.914666 22.4064 1.128L22.4224 6.312C22.8704 5.928 23.393 5.432 23.9904 4.824C24.5877 4.216 25.0944 3.66133 25.5104 3.16C25.681 2.94667 25.889 2.84 26.1344 2.84C26.3477 2.84 26.5237 2.90933 26.6624 3.048C26.8117 3.18667 26.8864 3.36267 26.8864 3.576C26.8864 3.75733 26.833 3.912 26.7264 4.04C26.449 4.41333 26.097 4.824 25.6704 5.272C25.2544 5.72 24.8704 6.10933 24.5184 6.44L27.1584 9.752C27.297 9.912 27.3664 10.0773 27.3664 10.248C27.3664 10.472 27.2917 10.664 27.1424 10.824C27.0037 10.9733 26.8224 11.048 26.5984 11.048C26.3424 11.048 26.1397 10.9573 25.9904 10.776C25.1584 9.656 24.369 8.632 23.6224 7.704L23.3664 7.368C23.1424 7.53867 22.833 7.752 22.4384 8.008V10.328C22.4384 10.5307 22.3637 10.712 22.2144 10.872C22.065 11.0213 21.8784 11.096 21.6544 11.096ZM39.4744 11.256C39.261 11.256 39.085 11.1973 38.9464 11.08C38.8184 10.9627 38.7544 10.808 38.7544 10.616V10.392C38.317 10.8613 37.709 11.096 36.9304 11.096C36.3437 11.096 35.8157 10.952 35.3464 10.664C34.877 10.376 34.509 9.97067 34.2424 9.448C33.9757 8.91467 33.8424 8.312 33.8424 7.64C33.8424 6.89333 34.0024 6.17333 34.3224 5.48C34.6424 4.776 35.0904 4.20533 35.6664 3.768C36.253 3.33067 36.925 3.112 37.6824 3.112C38.173 3.112 38.6157 3.18133 39.0104 3.32C39.405 3.448 39.8157 3.608 40.2424 3.8V10.456C40.2424 10.6693 40.1677 10.856 40.0184 11.016C39.869 11.176 39.6877 11.256 39.4744 11.256ZM37.0424 9.608C37.3517 9.608 37.6504 9.544 37.9384 9.416C38.237 9.288 38.4824 9.13333 38.6744 8.952L38.7224 4.776C38.413 4.648 38.077 4.584 37.7144 4.584C37.2557 4.584 36.8504 4.728 36.4984 5.016C36.1464 5.29333 35.8744 5.66667 35.6824 6.136C35.4904 6.59467 35.3944 7.08533 35.3944 7.608C35.3944 8.25867 35.5384 8.75467 35.8264 9.096C36.1144 9.43733 36.5197 9.608 37.0424 9.608ZM43.2474 11.096C43.0447 11.096 42.8634 11.0213 42.7034 10.872C42.554 10.7227 42.4794 10.552 42.4794 10.36V3.864C42.4794 3.65067 42.5594 3.46933 42.7194 3.32C42.8794 3.17067 43.066 3.096 43.2794 3.096C43.482 3.096 43.6527 3.17067 43.7914 3.32C43.9407 3.46933 44.0154 3.65067 44.0154 3.864V5.08C44.314 4.44 44.6927 3.95467 45.1514 3.624C45.61 3.28267 46.1114 3.112 46.6554 3.112C47.2527 3.112 47.7274 3.25067 48.0794 3.528C48.4314 3.80533 48.6874 4.264 48.8474 4.904C49.0074 5.53333 49.0874 6.408 49.0874 7.528L49.0714 10.328C49.0714 10.5307 49.002 10.712 48.8634 10.872C48.7247 11.0213 48.5487 11.096 48.3354 11.096C48.1327 11.096 47.9514 11.0213 47.7914 10.872C47.642 10.712 47.5674 10.536 47.5674 10.344V7.688C47.5674 6.856 47.53 6.216 47.4554 5.768C47.3807 5.32 47.2687 5.016 47.1194 4.856C46.97 4.68533 46.7674 4.6 46.5114 4.6C46.1914 4.6 45.8714 4.73867 45.5514 5.016C45.2314 5.28267 44.9327 5.66667 44.6554 6.168C44.41 6.60533 44.2394 7.032 44.1434 7.448C44.0474 7.864 43.9994 8.36533 43.9994 8.952V10.296C43.9994 10.5307 43.93 10.7227 43.7914 10.872C43.6634 11.0213 43.482 11.096 43.2474 11.096ZM53.5189 11.08C52.9749 11.08 52.4842 10.9413 52.0469 10.664C51.6202 10.376 51.2789 9.96 51.0229 9.416C50.7775 8.872 50.6549 8.22133 50.6549 7.464C50.6549 6.54667 50.7989 5.76267 51.0869 5.112C51.3749 4.46133 51.7749 3.97067 52.2869 3.64C52.7989 3.29867 53.3909 3.128 54.0629 3.128C54.5962 3.128 55.1669 3.25067 55.7749 3.496L55.8549 1.016C55.8655 0.802666 55.9455 0.621332 56.0949 0.471999C56.2549 0.311999 56.4415 0.231999 56.6549 0.231999C56.8575 0.231999 57.0335 0.311999 57.1829 0.471999C57.3429 0.621332 57.4175 0.813333 57.4069 1.048L57.1829 10.36C57.1722 10.5733 57.0922 10.7493 56.9429 10.888C56.7935 11.0267 56.6122 11.096 56.3989 11.096C56.1962 11.096 56.0202 11.0373 55.8709 10.92C55.7322 10.8027 55.6629 10.648 55.6629 10.456V10.168C55.3855 10.424 55.0602 10.6427 54.6869 10.824C54.3135 10.9947 53.9242 11.08 53.5189 11.08ZM53.6469 9.64C54.0095 9.64 54.3455 9.56533 54.6549 9.416C54.9749 9.256 55.2255 9.064 55.4069 8.84C55.5882 8.616 55.6842 8.408 55.6949 8.216L55.7589 5.064C55.5669 4.936 55.3215 4.824 55.0229 4.728C54.7242 4.62133 54.4362 4.568 54.1589 4.568C53.5082 4.568 53.0175 4.81333 52.6869 5.304C52.3562 5.784 52.1909 6.488 52.1909 7.416C52.1909 8.184 52.3189 8.74933 52.5749 9.112C52.8415 9.464 53.1989 9.64 53.6469 9.64ZM65.3094 11.096C65.0747 11.096 64.888 11.0267 64.7494 10.888C64.6214 10.7493 64.5574 10.5947 64.5574 10.424C64.5574 10.2533 64.5787 10.0773 64.6214 9.896L66.6054 0.823999C66.648 0.631999 66.7387 0.482666 66.8774 0.375999C67.016 0.258666 67.1867 0.2 67.3894 0.2C67.7627 0.2 68.008 0.381333 68.1254 0.743999L70.3814 7.832L72.9414 0.712C73.0694 0.370667 73.336 0.2 73.7414 0.2C73.9227 0.2 74.072 0.258666 74.1894 0.375999C74.3174 0.482666 74.4027 0.631999 74.4454 0.823999L76.4774 9.88C76.5307 10.1253 76.5574 10.2853 76.5574 10.36C76.5574 10.5627 76.4827 10.7387 76.3334 10.888C76.184 11.0267 75.9974 11.096 75.7734 11.096C75.56 11.096 75.3894 11.0427 75.2614 10.936C75.1334 10.8187 75.048 10.6693 75.0054 10.488L73.5334 3.8L71.0694 10.584C71.016 10.744 70.92 10.872 70.7814 10.968C70.6427 11.0533 70.488 11.096 70.3174 11.096C69.944 11.096 69.6987 10.9147 69.5814 10.552L67.5014 4.04L66.0934 10.472C66.0507 10.664 65.96 10.8187 65.8214 10.936C65.6827 11.0427 65.512 11.096 65.3094 11.096ZM80.904 11.096C80.296 11.096 79.736 10.9307 79.224 10.6C78.7227 10.2693 78.328 9.82133 78.04 9.256C77.752 8.68 77.608 8.056 77.608 7.384C77.608 6.62667 77.7787 5.92267 78.12 5.272C78.4613 4.61067 78.92 4.088 79.496 3.704C80.072 3.30933 80.6907 3.112 81.352 3.112C81.96 3.112 82.5147 3.28267 83.016 3.624C83.528 3.96533 83.928 4.41867 84.216 4.984C84.5147 5.54933 84.664 6.15733 84.664 6.808C84.664 7.576 84.4933 8.29067 84.152 8.952C83.8107 9.60267 83.3467 10.1253 82.76 10.52C82.184 10.904 81.5653 11.096 80.904 11.096ZM80.904 9.656C81.2773 9.656 81.6347 9.528 81.976 9.272C82.3173 9.016 82.5893 8.67467 82.792 8.248C82.9947 7.82133 83.096 7.368 83.096 6.888C83.096 6.48267 83.016 6.104 82.856 5.752C82.696 5.38933 82.4773 5.10133 82.2 4.888C81.9227 4.664 81.6187 4.552 81.288 4.552C80.9147 4.552 80.5627 4.68533 80.232 4.952C79.912 5.208 79.656 5.55467 79.464 5.992C79.272 6.41867 79.176 6.87733 79.176 7.368C79.176 7.848 79.256 8.25867 79.416 8.6C79.5867 8.94133 79.8 9.20267 80.056 9.384C80.3227 9.56533 80.6053 9.656 80.904 9.656ZM87.1696 11.096C86.967 11.096 86.7856 11.0213 86.6256 10.872C86.4656 10.7227 86.3856 10.552 86.3856 10.36V3.88C86.3856 3.66667 86.4603 3.48533 86.6096 3.336C86.7696 3.18667 86.9563 3.112 87.1696 3.112C87.383 3.112 87.5643 3.18667 87.7136 3.336C87.8736 3.48533 87.9536 3.66667 87.9536 3.88V4.36C88.4763 3.50667 89.191 3.08 90.0976 3.08C90.6416 3.08 91.031 3.22933 91.2656 3.528C91.511 3.82667 91.6336 4.184 91.6336 4.6V5.08C91.6336 5.29333 91.559 5.47467 91.4096 5.624C91.271 5.76267 91.095 5.832 90.8816 5.832C90.6256 5.832 90.4336 5.75733 90.3056 5.608C90.1883 5.45867 90.1296 5.27733 90.1296 5.064V4.856C90.1296 4.68533 90.0123 4.6 89.7776 4.6C89.5856 4.6 89.3616 4.696 89.1056 4.888C88.8603 5.08 88.6576 5.28267 88.4976 5.496C88.2736 5.77333 88.1243 6.05067 88.0496 6.328C87.9856 6.60533 87.9536 6.936 87.9536 7.32L87.9376 10.36C87.9376 10.552 87.8576 10.7227 87.6976 10.872C87.5376 11.0213 87.3616 11.096 87.1696 11.096ZM94.2308 11.112C94.0281 11.112 93.8468 11.0373 93.6868 10.888C93.5374 10.7387 93.4628 10.5627 93.4628 10.36V4.648H92.1988C91.9854 4.648 91.8041 4.57333 91.6547 4.424C91.5054 4.264 91.4307 4.08267 91.4307 3.88C91.4307 3.64533 91.5107 3.45867 91.6707 3.32C91.8308 3.17067 92.0174 3.096 92.2308 3.096H93.4628V1.384C93.4628 1.18133 93.5374 1 93.6868 0.839999C93.8361 0.679999 94.0174 0.599999 94.2308 0.599999C94.4548 0.599999 94.6361 0.679999 94.7748 0.839999C94.9241 0.989333 94.9988 1.17067 94.9988 1.384V3.096H96.3588C96.5721 3.096 96.7534 3.17067 96.9028 3.32C97.0521 3.46933 97.1268 3.656 97.1268 3.88C97.1268 4.08267 97.0521 4.264 96.9028 4.424C96.7534 4.57333 96.5721 4.648 96.3588 4.648H94.9988V10.36C94.9988 10.5627 94.9241 10.7387 94.7748 10.888C94.6254 11.0373 94.4441 11.112 94.2308 11.112ZM99.1928 13.96C99.0008 13.96 98.8354 13.88 98.6968 13.72C98.5581 13.5707 98.4888 13.3893 98.4888 13.176C98.4888 13.08 98.5154 12.968 98.5688 12.84L99.9608 9.848L97.0968 4.264C97.0328 4.136 97.0008 4.008 97.0008 3.88C97.0008 3.66667 97.0754 3.48533 97.2248 3.336C97.3848 3.176 97.5768 3.096 97.8008 3.096C97.9714 3.096 98.1208 3.144 98.2488 3.24C98.3768 3.336 98.4728 3.448 98.5368 3.576L100.793 8.04L102.809 3.576C102.873 3.43733 102.969 3.32 103.097 3.224C103.235 3.128 103.385 3.08 103.545 3.08C103.737 3.08 103.902 3.15467 104.041 3.304C104.179 3.45333 104.249 3.64 104.249 3.864C104.249 3.992 104.227 4.09867 104.185 4.184L99.9128 13.464C99.8488 13.6133 99.7528 13.7307 99.6248 13.816C99.4968 13.912 99.3528 13.96 99.1928 13.96Z" fill="#BFDE42"/>
</svg>
